 0
SECTION
 2
HEADER
 0
ENDSEC
 0
SECTION
 2
TABLES
 0
ENDSEC
 0
SECTION
 2
BLOCKS
0
BLOCK
70
0
2
CONN_10103594-0001LF_AMP
10
0
20
0
30
0
999
##### Poly 11 ####
0
POLYLINE
5
36
70
1
8
6
6
CONTINUOUS
66
1
10
0
20
0
30
0
39
.118
0
VERTEX
8
6
6
CONTINUOUS
 10
-.15367
 20
.07998
 30
0
0
VERTEX
8
6
6
CONTINUOUS
 10
-.15367
 20
.05198
 30
0
0
VERTEX
8
6
6
CONTINUOUS
 10
-.08178
 20
.05198
 30
0
0
VERTEX
8
6
6
CONTINUOUS
 10
-.08178
 20
.07998
 30
0
0
SEQEND
0
3DFACE
5
49
8
0
6
CONTINUOUS
 10
-.15367
 20
.07998
 30
.118
 11
-.15367
 21
.05198
 31
.118
 12
-.08178
 22
.05198
 32
.118
 13
-.08178
 23
.07998
 33
.118
0
3DFACE
5
49
8
0
6
CONTINUOUS
 10
-.15367
 20
.07998
 30
0
 11
-.15367
 21
.05198
 31
0
 12
-.08178
 22
.05198
 32
0
 13
-.08178
 23
.07998
 33
0
999
##### Poly 17 ####
0
POLYLINE
5
36
70
1
8
8
6
CONTINUOUS
66
1
10
0
20
0
30
0
39
.118
0
VERTEX
8
8
6
CONTINUOUS
 10
-.1685
 20
.15707
 30
0
0
VERTEX
8
8
6
CONTINUOUS
 10
-.1685
 20
-.1205
 30
0
0
VERTEX
8
8
6
CONTINUOUS
 10
.1685
 20
-.1205
 30
0
0
VERTEX
8
8
6
CONTINUOUS
 10
.1685
 20
.15707
 30
0
0
SEQEND
0
3DFACE
5
49
8
0
6
CONTINUOUS
 10
-.1685
 20
.15707
 30
.118
 11
-.1685
 21
-.1205
 31
.118
 12
.1685
 22
-.1205
 32
.118
 13
.1685
 23
.15707
 33
.118
0
3DFACE
5
49
8
0
6
CONTINUOUS
 10
-.1685
 20
.15707
 30
0
 11
-.1685
 21
-.1205
 31
0
 12
.1685
 22
-.1205
 32
0
 13
.1685
 23
.15707
 33
0
999
##### Poly 28 ####
0
POLYLINE
5
36
70
1
8
23
6
CONTINUOUS
66
1
10
0
20
0
30
0
39
.118
0
VERTEX
8
23
6
CONTINUOUS
 10
-.1835
 20
-.1355
 30
0
0
VERTEX
8
23
6
CONTINUOUS
 10
-.1835
 20
.1355
 30
0
0
VERTEX
8
23
6
CONTINUOUS
 10
.1835
 20
.1355
 30
0
0
VERTEX
8
23
6
CONTINUOUS
 10
.1835
 20
-.1355
 30
0
0
SEQEND
0
3DFACE
5
49
8
0
6
CONTINUOUS
 10
-.1835
 20
-.1355
 30
.118
 11
-.1835
 21
.1355
 31
.118
 12
.1835
 22
.1355
 32
.118
 13
.1835
 23
-.1355
 33
.118
0
3DFACE
5
49
8
0
6
CONTINUOUS
 10
-.1835
 20
-.1355
 30
0
 11
-.1835
 21
.1355
 31
0
 12
.1835
 22
.1355
 32
0
 13
.1835
 23
-.1355
 33
0
999
##### Poly 258 ####
0
POLYLINE
5
36
70
1
8
3
6
CONTINUOUS
66
1
10
0
20
0
30
0
39
.118
0
VERTEX
8
3
6
CONTINUOUS
 10
-.15367
 20
.07998
 30
0
0
VERTEX
8
3
6
CONTINUOUS
 10
-.15367
 20
.05198
 30
0
0
VERTEX
8
3
6
CONTINUOUS
 10
-.08178
 20
.05198
 30
0
0
VERTEX
8
3
6
CONTINUOUS
 10
-.08178
 20
.07998
 30
0
0
SEQEND
0
3DFACE
5
49
8
0
6
CONTINUOUS
 10
-.15367
 20
.07998
 30
.118
 11
-.15367
 21
.05198
 31
.118
 12
-.08178
 22
.05198
 32
.118
 13
-.08178
 23
.07998
 33
.118
0
3DFACE
5
49
8
0
6
CONTINUOUS
 10
-.15367
 20
.07998
 30
0
 11
-.15367
 21
.05198
 31
0
 12
-.08178
 22
.05198
 32
0
 13
-.08178
 23
.07998
 33
0
999
##### Poly 259 ####
0
POLYLINE
5
36
70
1
8
3
6
CONTINUOUS
66
1
10
0
20
0
30
0
39
.118
0
VERTEX
8
3
6
CONTINUOUS
 10
.15367
 20
.07998
 30
0
0
VERTEX
8
3
6
CONTINUOUS
 10
.15367
 20
.05198
 30
0
0
VERTEX
8
3
6
CONTINUOUS
 10
.08178
 20
.05198
 30
0
0
VERTEX
8
3
6
CONTINUOUS
 10
.08178
 20
.07998
 30
0
0
SEQEND
0
3DFACE
5
49
8
0
6
CONTINUOUS
 10
.15367
 20
.07998
 30
.118
 11
.15367
 21
.05198
 31
.118
 12
.08178
 22
.05198
 32
.118
 13
.08178
 23
.07998
 33
.118
0
3DFACE
5
49
8
0
6
CONTINUOUS
 10
.15367
 20
.07998
 30
0
 11
.15367
 21
.05198
 31
0
 12
.08178
 22
.05198
 32
0
 13
.08178
 23
.07998
 33
0
999
##### Poly 260 ####
0
POLYLINE
5
36
70
1
8
7
6
CONTINUOUS
66
1
10
0
20
0
30
0
39
.118
0
VERTEX
8
7
6
CONTINUOUS
 10
-.15367
 20
.07998
 30
0
0
VERTEX
8
7
6
CONTINUOUS
 10
-.15367
 20
.05198
 30
0
0
VERTEX
8
7
6
CONTINUOUS
 10
-.08178
 20
.05198
 30
0
0
VERTEX
8
7
6
CONTINUOUS
 10
-.08178
 20
.07998
 30
0
0
SEQEND
0
3DFACE
5
49
8
0
6
CONTINUOUS
 10
-.15367
 20
.07998
 30
.118
 11
-.15367
 21
.05198
 31
.118
 12
-.08178
 22
.05198
 32
.118
 13
-.08178
 23
.07998
 33
.118
0
3DFACE
5
49
8
0
6
CONTINUOUS
 10
-.15367
 20
.07998
 30
0
 11
-.15367
 21
.05198
 31
0
 12
-.08178
 22
.05198
 32
0
 13
-.08178
 23
.07998
 33
0
999
##### Poly 395 ####
0
POLYLINE
5
36
70
1
8
6
6
CONTINUOUS
66
1
10
0
20
0
30
0
39
.118
0
VERTEX
8
6
6
CONTINUOUS
 10
.15367
 20
.07998
 30
0
0
VERTEX
8
6
6
CONTINUOUS
 10
.15367
 20
.05198
 30
0
0
VERTEX
8
6
6
CONTINUOUS
 10
.08178
 20
.05198
 30
0
0
VERTEX
8
6
6
CONTINUOUS
 10
.08178
 20
.07998
 30
0
0
SEQEND
0
3DFACE
5
49
8
0
6
CONTINUOUS
 10
.15367
 20
.07998
 30
.118
 11
.15367
 21
.05198
 31
.118
 12
.08178
 22
.05198
 32
.118
 13
.08178
 23
.07998
 33
.118
0
3DFACE
5
49
8
0
6
CONTINUOUS
 10
.15367
 20
.07998
 30
0
 11
.15367
 21
.05198
 31
0
 12
.08178
 22
.05198
 32
0
 13
.08178
 23
.07998
 33
0
999
##### Poly 396 ####
0
POLYLINE
5
36
70
1
8
7
6
CONTINUOUS
66
1
10
0
20
0
30
0
39
.118
0
VERTEX
8
7
6
CONTINUOUS
 10
.15367
 20
.07998
 30
0
0
VERTEX
8
7
6
CONTINUOUS
 10
.15367
 20
.05198
 30
0
0
VERTEX
8
7
6
CONTINUOUS
 10
.08178
 20
.05198
 30
0
0
VERTEX
8
7
6
CONTINUOUS
 10
.08178
 20
.07998
 30
0
0
SEQEND
0
3DFACE
5
49
8
0
6
CONTINUOUS
 10
.15367
 20
.07998
 30
.118
 11
.15367
 21
.05198
 31
.118
 12
.08178
 22
.05198
 32
.118
 13
.08178
 23
.07998
 33
.118
0
3DFACE
5
49
8
0
6
CONTINUOUS
 10
.15367
 20
.07998
 30
0
 11
.15367
 21
.05198
 31
0
 12
.08178
 22
.05198
 32
0
 13
.08178
 23
.07998
 33
0
0
ENDBLK
0
ENDSEC
0
SECTION
2
ENTITIES
 0
INSERT
 8
0
 2
CONN_10103594-0001LF_AMP
 10
0
 20
0
 30
0
 41
1
 42
1
 43
1
0
ENDSEC
 0
EOF

